<?xml version="1.0" encoding="UTF-8"?>
<svg width="493px" height="519px" viewBox="0 0 493 519" version="1.1"
  xmlns="http://www.w3.org/2000/svg"
  xmlns:xlink="http://www.w3.org/1999/xlink">
  <!-- Generator: Sketch 52.5 (67469) - http://www.bohemiancoding.com/sketch -->
  <title>add-marker</title>
  <defs>
    <path d="M135.027809,0 C60.453854,0 0,52.3617656 0,116.953938 C0,214.622712 134.546503,388.345129 135.027809,388.329689 C135.601811,388.31116 270.053835,213.078664 270.053835,116.953938 C270.053835,52.3617656 209.601764,0 135.027809,0 Z" id="path-1"></path>
    <filter x="-7.2%" y="-4.2%" width="114.4%" height="110.0%" filterUnits="objectBoundingBox" id="filter-2">
      <feMorphology radius="1" operator="dilate" in="SourceAlpha" result="shadowSpreadOuter1"></feMorphology>
      <feOffset dx="0" dy="3" in="shadowSpreadOuter1" result="shadowOffsetOuter1"></feOffset>
      <feGaussianBlur stdDeviation="5" in="shadowOffsetOuter1" result="shadowBlurOuter1"></feGaussianBlur>
      <feColorMatrix values="0 0 0 0 0   0 0 0 0 0   0 0 0 0 0  0 0 0 0.505293252 0" type="matrix" in="shadowBlurOuter1"></feColorMatrix>
    </filter>
    <path d="M256,40 L284,40 C290.075132,40 295,44.9248678 295,51 C295,57.0751322 290.075132,62 284,62 L256,62 L256,91 C256,97.0751322 251.075132,102 245,102 C238.924868,102 234,97.0751322 234,91 L234,62 L204,62 C197.924868,62 193,57.0751322 193,51 C193,44.9248678 197.924868,40 204,40 L234,40 L234,11 C234,4.92486775 238.924868,1.11598369e-15 245,0 C251.075132,-1.11598369e-15 256,4.92486775 256,11 L256,40 Z" id="path-3"></path>
    <filter x="-12.7%" y="-10.8%" width="125.5%" height="125.5%" filterUnits="objectBoundingBox" id="filter-4">
      <feMorphology radius="1" operator="dilate" in="SourceAlpha" result="shadowSpreadOuter1"></feMorphology>
      <feOffset dx="0" dy="2" in="shadowSpreadOuter1" result="shadowOffsetOuter1"></feOffset>
      <feGaussianBlur stdDeviation="3" in="shadowOffsetOuter1" result="shadowBlurOuter1"></feGaussianBlur>
      <feColorMatrix values="0 0 0 0 0   0 0 0 0 0   0 0 0 0 0  0 0 0 0.5 0" type="matrix" in="shadowBlurOuter1"></feColorMatrix>
    </filter>
  </defs>
  <g id="add-marker" stroke="none" stroke-width="1" fill="none" fill-rule="evenodd">
    <g id="marker" transform="translate(110.000000, 117.000000)">
      <g id="body" fill-rule="nonzero">
        <use fill="black" fill-opacity="1" filter="url(#filter-2)" xlink:href="#path-1"></use>
        <use fill="#E01A4F" xlink:href="#path-1"></use>
      </g>
      <circle id="core" fill="#000000" opacity="0.498721168" style="mix-blend-mode: multiply;" cx="135.5" cy="140.5" r="79.5"></circle>
      <g id="plus">
        <use fill="black" fill-opacity="1" filter="url(#filter-4)" xlink:href="#path-3"></use>
        <use fill="#FFFFFF" fill-rule="evenodd" xlink:href="#path-3"></use>
      </g>
    </g>
    <g id="directions" transform="translate(14.000000, 24.000000)" fill="#D8D8D8">
      <g id="direction" transform="translate(164.000000, 0.000000)">
        <path d="M54.037081,5.32927355 C54.4811219,4.57309781 55.0260029,3.85975697 55.6717242,3.20870634 L55.7343009,3.14561311 C57.8674719,0.994836115 60.6933485,-0.0512023733 63.5002729,0.0104223775 C66.2778661,-0.0505574771 69.0756743,0.973010951 71.2040479,3.08396195 C71.2246827,3.10442779 71.2452332,3.12497835 71.2656991,3.14561311 L71.3282758,3.20870634 C71.9739971,3.85975697 72.5188781,4.57309781 72.962919,5.32927355 L123.943211,56.7303274 C128.07803,60.8992732 128.07803,67.6223478 123.943211,71.7912937 L123.880634,71.8543869 C119.755197,76.0138733 113.038939,76.0414755 108.879452,71.916038 C108.858818,71.8955722 108.838267,71.8750216 108.817801,71.8543869 L63.5,26.1625585 L18.1821988,71.8543869 C14.0567614,76.0138733 7.34050358,76.0414755 3.18101717,71.916038 C3.16038242,71.8955722 3.13983186,71.8750216 3.11936601,71.8543869 L3.05678926,71.7912937 C-1.07803017,67.6223478 -1.07803017,60.8992732 3.05678926,56.7303274 L54.037081,5.32927355 Z" id="Combined-Shape"></path>
      </g>
      <g id="direction" transform="translate(37.500000, 220.500000) rotate(-90.000000) translate(-37.500000, -220.500000) translate(-26.000000, 183.000000)">
        <path d="M54.037081,5.32927355 C54.4811219,4.57309781 55.0260029,3.85975697 55.6717242,3.20870634 L55.7343009,3.14561311 C57.8674719,0.994836115 60.6933485,-0.0512023733 63.5002729,0.0104223775 C66.2778661,-0.0505574771 69.0756743,0.973010951 71.2040479,3.08396195 C71.2246827,3.10442779 71.2452332,3.12497835 71.2656991,3.14561311 L71.3282758,3.20870634 C71.9739971,3.85975697 72.5188781,4.57309781 72.962919,5.32927355 L123.943211,56.7303274 C128.07803,60.8992732 128.07803,67.6223478 123.943211,71.7912937 L123.880634,71.8543869 C119.755197,76.0138733 113.038939,76.0414755 108.879452,71.916038 C108.858818,71.8955722 108.838267,71.8750216 108.817801,71.8543869 L63.5,26.1625585 L18.1821988,71.8543869 C14.0567614,76.0138733 7.34050358,76.0414755 3.18101717,71.916038 C3.16038242,71.8955722 3.13983186,71.8750216 3.11936601,71.8543869 L3.05678926,71.7912937 C-1.07803017,67.6223478 -1.07803017,60.8992732 3.05678926,56.7303274 L54.037081,5.32927355 Z" id="Combined-Shape"></path>
      </g>
      <g id="direction" transform="translate(427.500000, 223.500000) rotate(-270.000000) translate(-427.500000, -223.500000) translate(364.000000, 186.000000)">
        <path d="M54.037081,5.32927355 C54.4811219,4.57309781 55.0260029,3.85975697 55.6717242,3.20870634 L55.7343009,3.14561311 C57.8674719,0.994836115 60.6933485,-0.0512023733 63.5002729,0.0104223775 C66.2778661,-0.0505574771 69.0756743,0.973010951 71.2040479,3.08396195 C71.2246827,3.10442779 71.2452332,3.12497835 71.2656991,3.14561311 L71.3282758,3.20870634 C71.9739971,3.85975697 72.5188781,4.57309781 72.962919,5.32927355 L123.943211,56.7303274 C128.07803,60.8992732 128.07803,67.6223478 123.943211,71.7912937 L123.880634,71.8543869 C119.755197,76.0138733 113.038939,76.0414755 108.879452,71.916038 C108.858818,71.8955722 108.838267,71.8750216 108.817801,71.8543869 L63.5,26.1625585 L18.1821988,71.8543869 C14.0567614,76.0138733 7.34050358,76.0414755 3.18101717,71.916038 C3.16038242,71.8955722 3.13983186,71.8750216 3.11936601,71.8543869 L3.05678926,71.7912937 C-1.07803017,67.6223478 -1.07803017,60.8992732 3.05678926,56.7303274 L54.037081,5.32927355 Z" id="Combined-Shape"></path>
      </g>
    </g>
  </g>
</svg>
