<?xml version="1.0" encoding="UTF-8"?>
<svg width="315px" height="411px" viewBox="0 0 315 411" version="1.1"
  xmlns="http://www.w3.org/2000/svg"
  xmlns:xlink="http://www.w3.org/1999/xlink">
  <!-- Generator: Sketch 52.5 (67469) - http://www.bohemiancoding.com/sketch -->
  <defs>
    <path d="M135.027809,0 C60.453854,0 0,52.3617656 0,116.953938 C0,214.622712 134.546503,388.345129 135.027809,388.329689 C135.601811,388.31116 270.053835,213.078664 270.053835,116.953938 C270.053835,52.3617656 209.601764,0 135.027809,0 Z" id="path-1"></path>
    <filter x="-7.2%" y="-4.2%" width="114.4%" height="110.0%" filterUnits="objectBoundingBox" id="filter-2">
      <feMorphology radius="1" operator="dilate" in="SourceAlpha" result="shadowSpreadOuter1"></feMorphology>
      <feOffset dx="0" dy="3" in="shadowSpreadOuter1" result="shadowOffsetOuter1"></feOffset>
      <feGaussianBlur stdDeviation="5" in="shadowOffsetOuter1" result="shadowBlurOuter1"></feGaussianBlur>
      <feColorMatrix values="0 0 0 0 0   0 0 0 0 0   0 0 0 0 0  0 0 0 0.505293252 0" type="matrix" in="shadowBlurOuter1"></feColorMatrix>
    </filter>
    <path d="M256,40 L284,40 C290.075132,40 295,44.9248678 295,51 C295,57.0751322 290.075132,62 284,62 L256,62 L256,91 C256,97.0751322 251.075132,102 245,102 C238.924868,102 234,97.0751322 234,91 L234,62 L204,62 C197.924868,62 193,57.0751322 193,51 C193,44.9248678 197.924868,40 204,40 L234,40 L234,11 C234,4.92486775 238.924868,1.11598369e-15 245,0 C251.075132,-1.11598369e-15 256,4.92486775 256,11 L256,40 Z" id="path-3"></path>
    <filter x="-12.7%" y="-10.8%" width="125.5%" height="125.5%" filterUnits="objectBoundingBox" id="filter-4">
      <feMorphology radius="1" operator="dilate" in="SourceAlpha" result="shadowSpreadOuter1"></feMorphology>
      <feOffset dx="0" dy="2" in="shadowSpreadOuter1" result="shadowOffsetOuter1"></feOffset>
      <feGaussianBlur stdDeviation="3" in="shadowOffsetOuter1" result="shadowBlurOuter1"></feGaussianBlur>
      <feColorMatrix values="0 0 0 0 0   0 0 0 0 0   0 0 0 0 0  0 0 0 0.5 0" type="matrix" in="shadowBlurOuter1"></feColorMatrix>
    </filter>
  </defs>
  <g id="with-plus" stroke="none" stroke-width="1" fill="none" fill-rule="evenodd">
    <g id="add-marker" transform="translate(12.000000, 9.000000)">
      <g id="marker-body" fill-rule="nonzero">
        <use fill="black" fill-opacity="1" filter="url(#filter-2)" xlink:href="#path-1"></use>
        <use fill="#E01A4F" xlink:href="#path-1"></use>
      </g>
      <circle id="marker-core" fill="#000000" opacity="0.498721168" style="mix-blend-mode: multiply;" cx="135.5" cy="140.5" r="79.5"></circle>
      <g id="add-icon">
        <use fill="black" fill-opacity="1" filter="url(#filter-4)" xlink:href="#path-3"></use>
        <use fill="#FFFFFF" fill-rule="evenodd" xlink:href="#path-3"></use>
      </g>
    </g>
  </g>
</svg>
